ExploreSansVariable_Normal Serif Italic.ufo
<glyph name="exclam" format="2">
  <advance width="255"/>
  <unicode hex="0021"/>
  <outline>
    <contour>
      <point x="155.839" y="716" type="line"/>
      <point x="255.839" y="716" type="line"/>
      <point x="134.647" y="207" type="line"/>
      <point x="56.6475" y="207" type="line"/>
    </contour>
    <contour>
      <point x="76.9434" y="119" type="curve" smooth="yes"/>
      <point x="117.943" y="119"/>
      <point x="132.929" y="86"/>
      <point x="126.339" y="55" type="curve" smooth="yes"/>
      <point x="119.325" y="22"/>
      <point x="90.1611" y="-7"/>
      <point x="50.1611" y="-7" type="curve" smooth="yes"/>
      <point x="10.1611" y="-7"/>
      <point x="-6.6748" y="22"/>
      <point x="0.338867" y="55" type="curve" smooth="yes"/>
      <point x="6.92871" y="86"/>
      <point x="35.9434" y="119"/>
    </contour>
  </outline>
</glyph>
<glyph name="dollar" format="2">
  <advance width="616"/>
  <unicode hex="0024"/>
  <outline>
    <contour>
      <point x="389.491" y="864" type="line"/>
      <point x="446.491" y="864" type="line"/>
      <point x="233.509" y="-138" type="line"/>
      <point x="176.509" y="-138" type="line"/>
    </contour>
    <component base="S" xOffset="13.2126" yOffset="1"/>
  </outline>
</glyph>
<glyph name="percent" format="2">
  <advance width="768"/>
  <unicode hex="0025"/>
  <outline>
    <contour>
      <point x="627.245" y="708" type="line"/>
      <point x="705.245" y="708" type="line"/>
      <point x="141.755" y="0" type="line"/>
      <point x="62.7549" y="0" type="line"/>
    </contour>
    <contour>
      <point x="550.198" y="322" type="curve" smooth="yes"/>
      <point x="640.198" y="322"/>
      <point x="685.17" y="256"/>
      <point x="664.126" y="157" type="curve" smooth="yes"/>
      <point x="643.083" y="58"/>
      <point x="570.055" y="-8"/>
      <point x="480.055" y="-8" type="curve" smooth="yes"/>
      <point x="390.055" y="-8"/>
      <point x="345.083" y="58"/>
      <point x="366.126" y="157" type="curve" smooth="yes"/>
      <point x="387.17" y="256"/>
      <point x="460.198" y="322"/>
    </contour>
    <contour>
      <point x="537.72" y="268" type="curve" smooth="yes"/>
      <point x="492.72" y="268"/>
      <point x="459.518" y="220"/>
      <point x="445.701" y="155" type="curve" smooth="yes"/>
      <point x="432.735" y="94"/>
      <point x="445.532" y="46"/>
      <point x="491.532" y="46" type="curve" smooth="yes"/>
      <point x="537.532" y="46"/>
      <point x="570.735" y="94"/>
      <point x="583.701" y="155" type="curve" smooth="yes"/>
      <point x="589.652" y="183"/>
      <point x="601.72" y="268"/>
    </contour>
    <contour>
      <point x="275.468" y="662" type="curve" smooth="yes"/>
      <point x="230.468" y="662"/>
      <point x="197.052" y="613"/>
      <point x="183.448" y="549" type="curve" smooth="yes"/>
      <point x="170.482" y="488"/>
      <point x="183.067" y="439"/>
      <point x="229.067" y="439" type="curve" smooth="yes"/>
      <point x="275.067" y="439"/>
      <point x="308.482" y="488"/>
      <point x="321.661" y="550" type="curve" smooth="yes"/>
      <point x="328.25" y="581"/>
      <point x="337.468" y="662"/>
    </contour>
    <contour>
      <point x="287.945" y="716" type="curve" smooth="yes"/>
      <point x="377.945" y="716"/>
      <point x="422.917" y="650"/>
      <point x="401.874" y="551" type="curve" smooth="yes"/>
      <point x="381.043" y="453"/>
      <point x="308.589" y="385"/>
      <point x="217.589" y="385" type="curve" smooth="yes"/>
      <point x="126.589" y="385"/>
      <point x="83.043" y="453"/>
      <point x="103.874" y="551" type="curve" smooth="yes"/>
      <point x="124.917" y="650"/>
      <point x="197.945" y="716"/>
    </contour>
  </outline>
</glyph>
<glyph name="ampersand" format="2">
  <advance width="731"/>
  <unicode hex="0026"/>
  <outline>
    <contour>
      <point x="303.43" y="436" type="curve"/>
      <point x="294.526" y="380" type="line"/>
      <point x="200.526" y="380"/>
      <point x="122.049" y="326"/>
      <point x="98.667" y="216" type="curve" smooth="yes"/>
      <point x="76.7734" y="113"/>
      <point x="133.958" y="48"/>
      <point x="241.958" y="48" type="curve" smooth="yes"/>
      <point x="389.958" y="48"/>
      <point x="507.716" y="188"/>
      <point x="544.488" y="361" type="curve"/>
      <point x="605.938" y="349" type="line"/>
      <point x="568.527" y="173"/>
      <point x="441.055" y="-8"/>
      <point x="225.055" y="-8" type="curve" smooth="yes"/>
      <point x="63.0547" y="-8"/>
      <point x="-8.96484" y="86"/>
      <point x="18.2422" y="214" type="curve" smooth="yes"/>
      <point x="49.7002" y="362"/>
      <point x="187.43" y="436"/>
    </contour>
    <contour>
      <point x="477.391" y="417" type="line"/>
      <point x="684.227" y="388" type="line"/>
      <point x="672.536" y="333" type="line"/>
      <point x="466.338" y="365" type="line"/>
    </contour>
    <contour>
      <point x="440.945" y="716" type="curve" smooth="yes"/>
      <point x="484.945" y="716"/>
      <point x="528.458" y="709"/>
      <point x="565.506" y="681" type="curve"/>
      <point x="542.55" y="573" type="line"/>
      <point x="462.55" y="573" type="line"/>
      <point x="479.933" y="654.779" type="line"/>
      <point x="463.945" y="658.756"/>
      <point x="447.497" y="660"/>
      <point x="429.042" y="660" type="curve" smooth="yes"/>
      <point x="343.042" y="660"/>
      <point x="303.352" y="605"/>
      <point x="294.85" y="565" type="curve" smooth="yes"/>
      <point x="281.458" y="502"/>
      <point x="295.932" y="476"/>
      <point x="320.005" y="434" type="curve" smooth="yes"/>
      <point x="550.658" y="56" type="line"/>
      <point x="619.658" y="56" type="line"/>
      <point x="607.755" y="0" type="line"/>
      <point x="483.755" y="0" type="line"/>
      <point x="246.077" y="392" type="line" smooth="yes"/>
      <point x="211.98" y="448"/>
      <point x="199.758" y="494"/>
      <point x="213.574" y="559" type="curve" smooth="yes"/>
      <point x="228.878" y="631"/>
      <point x="295.945" y="716"/>
    </contour>
  </outline>
</glyph>
<glyph name="parenleft" format="2">
  <advance width="247"/>
  <unicode hex="0028"/>
  <outline>
    <contour>
      <point x="288.824" y="800" type="curve"/>
      <point x="302.786" y="781" type="line"/>
      <point x="274.26" y="755"/>
      <point x="161.091" y="646"/>
      <point x="102" y="368" type="curve" smooth="yes"/>
      <point x="72.2422" y="228"/>
      <point x="64.5713" y="79"/>
      <point x="126.214" y="-45" type="curve"/>
      <point x="99.1758" y="-64" type="line"/>
      <point x="8.09277" y="25"/>
      <point x="-12.3477" y="197"/>
      <point x="24" y="368" type="curve" smooth="yes"/>
      <point x="65.4482" y="563"/>
      <point x="154.057" y="707"/>
    </contour>
  </outline>
</glyph>
<glyph name="parenright" format="2">
  <advance width="247"/>
  <unicode hex="0029"/>
  <outline>
    <contour>
      <point x="141.824" y="800" type="curve"/>
      <point x="119.786" y="781" type="line"/>
      <point x="137.26" y="755"/>
      <point x="204.091" y="646"/>
      <point x="145" y="368" type="curve" smooth="yes"/>
      <point x="115.242" y="228"/>
      <point x="59.5713" y="79"/>
      <point x="-54.7861" y="-45" type="curve"/>
      <point x="-35.8242" y="-64" type="line"/>
      <point x="93.0928" y="25"/>
      <point x="186.652" y="197"/>
      <point x="223" y="368" type="curve" smooth="yes"/>
      <point x="264.448" y="563"/>
      <point x="237.057" y="707"/>
    </contour>
  </outline>
</glyph>
<glyph name="asterisk" format="2">
  <advance width="475"/>
  <unicode hex="002A"/>
  <outline>
    <contour>
      <point x="239.835" y="806" type="line"/>
      <point x="309.835" y="806" type="line"/>
      <point x="303.033" y="774" type="line"/>
      <point x="246" y="628" type="line"/>
      <point x="404.367" y="705" type="line"/>
      <point x="423.43" y="710" type="line"/>
      <point x="429.976" y="642" type="line"/>
      <point x="416.126" y="638" type="line"/>
      <point x="248.599" y="612" type="line"/>
      <point x="337.855" y="505" type="line"/>
      <point x="344.667" y="490" type="line"/>
      <point x="279.165" y="450" type="line"/>
      <point x="272.354" y="465" type="line"/>
      <point x="231.687" y="603" type="line"/>
      <point x="133.354" y="465" type="line"/>
      <point x="119.165" y="450" type="line"/>
      <point x="70.667" y="490" type="line"/>
      <point x="83.8555" y="505" type="line"/>
      <point x="218.599" y="612" type="line"/>
      <point x="62.126" y="638" type="line"/>
      <point x="50.9756" y="642" type="line"/>
      <point x="85.4297" y="710" type="line"/>
      <point x="103.367" y="705" type="line"/>
      <point x="228" y="628" type="line"/>
      <point x="233.033" y="774" type="line"/>
    </contour>
  </outline>
</glyph>
<glyph name="comma" format="2">
  <advance width="163"/>
  <unicode hex="002C"/>
  <outline>
    <contour>
      <point x="55.2617" y="-143" type="curve"/>
      <point x="27.2617" y="-143" type="line"/>
      <point x="81.8066" y="-4" type="line"/>
      <point x="28.6572" y="0" type="line"/>
      <point x="60.7383" y="118" type="line"/>
      <point x="170.738" y="118" type="line"/>
      <point x="142.682" y="-14"/>
      <point x="108.015" y="-83"/>
    </contour>
  </outline>
</glyph>
<glyph name="slash" format="2">
  <advance width="374"/>
  <unicode hex="002F"/>
  <outline>
    <contour>
      <point x="413.269" y="772" type="line"/>
      <point x="477.08" y="757" type="line"/>
      <point x="-39.2686" y="-115" type="line"/>
      <point x="-103.08" y="-100" type="line"/>
    </contour>
  </outline>
</glyph>
<glyph name="zero" format="2">
  <advance width="550"/>
  <unicode hex="0030"/>
  <outline>
    <contour>
      <point x="338.936" y="660" type="curve" smooth="yes"/>
      <point x="253.936" y="660"/>
      <point x="179.97" y="599"/>
      <point x="128.744" y="358" type="curve" smooth="yes"/>
      <point x="86.0205" y="157"/>
      <point x="101.064" y="49"/>
      <point x="208.064" y="49" type="curve" smooth="yes"/>
      <point x="317.064" y="49"/>
      <point x="380.232" y="158"/>
      <point x="423.169" y="360" type="curve" smooth="yes"/>
      <point x="477.371" y="615"/>
      <point x="410.936" y="660"/>
    </contour>
    <contour>
      <point x="350.839" y="716" type="curve" smooth="yes"/>
      <point x="512.839" y="716"/>
      <point x="553.545" y="597"/>
      <point x="503.169" y="360" type="curve" smooth="yes"/>
      <point x="465.759" y="184"/>
      <point x="394.161" y="-7"/>
      <point x="196.161" y="-7" type="curve" smooth="yes"/>
      <point x="36.1611" y="-7"/>
      <point x="-3.12012" y="114"/>
      <point x="48.5312" y="357" type="curve" smooth="yes"/>
      <point x="99.332" y="596"/>
      <point x="189.839" y="716"/>
    </contour>
  </outline>
</glyph>
<glyph name="one" format="2">
  <advance width="550"/>
  <unicode hex="0031"/>
  <outline>
    <contour>
      <point x="317.979" y="655" type="curve"/>
      <point x="190.658" y="56" type="line"/>
      <point x="19.6582" y="56" type="line"/>
      <point x="7.75488" y="0" type="line"/>
      <point x="408.755" y="0" type="line"/>
      <point x="420.658" y="56" type="line"/>
      <point x="270.658" y="56" type="line"/>
      <point x="409.245" y="708" type="line"/>
      <point x="337.245" y="708" type="line"/>
      <point x="317.27" y="694"/>
      <point x="197.327" y="619"/>
      <point x="124.776" y="607" type="curve"/>
      <point x="112.023" y="547" type="line"/>
      <point x="201.637" y="564"/>
      <point x="267.052" y="613"/>
    </contour>
  </outline>
</glyph>
<glyph name="two" format="2">
  <advance width="550"/>
  <unicode hex="0032"/>
  <outline>
    <contour>
      <point x="126.617" y="662" type="line"/>
      <point x="195.694" y="700"/>
      <point x="256.096" y="716"/>
      <point x="317.096" y="716" type="curve" smooth="yes"/>
      <point x="464.096" y="716"/>
      <point x="539.791" y="644"/>
      <point x="515.135" y="528" type="curve" smooth="yes"/>
      <point x="498.98" y="452"/>
      <point x="447.589" y="389"/>
      <point x="350.247" y="298" type="curve" smooth="yes"/>
      <point x="106.996" y="71" type="line"/>
      <point x="374.996" y="71" type="line"/>
      <point x="410.74" y="178" type="line" smooth="yes"/>
      <point x="416.778" y="197"/>
      <point x="432.18" y="213"/>
      <point x="449.967" y="212" type="curve" smooth="yes"/>
      <point x="473.754" y="211" type="line"/>
      <point x="404.904" y="0" type="line"/>
      <point x="-10.0957" y="0" type="line"/>
      <point x="-0.743164" y="44" type="line"/>
      <point x="281.521" y="304" type="line" smooth="yes"/>
      <point x="384.715" y="399"/>
      <point x="419.193" y="453"/>
      <point x="434.284" y="524" type="curve" smooth="yes"/>
      <point x="450.438" y="600"/>
      <point x="414.192" y="660"/>
      <point x="302.192" y="660" type="curve" smooth="yes"/>
      <point x="235.192" y="660"/>
      <point x="177.453" y="633"/>
      <point x="136.352" y="609" type="curve"/>
    </contour>
  </outline>
</glyph>
<glyph name="three" format="2">
  <advance width="550"/>
  <unicode hex="0033"/>
  <outline>
    <contour>
      <point x="148.096" y="708" type="line"/>
      <point x="543.096" y="708" type="line"/>
      <point x="531.404" y="653" type="line"/>
      <point x="292.43" y="432" type="line"/>
      <point x="436.154" y="426"/>
      <point x="507.575" y="348"/>
      <point x="480.367" y="220" type="curve" smooth="yes"/>
      <point x="452.948" y="91"/>
      <point x="347.904" y="-8"/>
      <point x="184.904" y="-8" type="curve" smooth="yes"/>
      <point x="111.904" y="-8"/>
      <point x="30.7939" y="15"/>
      <point x="-20.4043" y="47" type="curve"/>
      <point x="10.2861" y="102" type="line"/>
      <point x="62.8467" y="67"/>
      <point x="123.808" y="48"/>
      <point x="190.808" y="48" type="curve" smooth="yes"/>
      <point x="311.808" y="48"/>
      <point x="378.899" y="119"/>
      <point x="400.793" y="222" type="curve" smooth="yes"/>
      <point x="420.773" y="316"/>
      <point x="377.164" y="379"/>
      <point x="269.164" y="379" type="curve" smooth="yes"/>
      <point x="210.164" y="379" type="line"/>
      <point x="207.966" y="411" type="line"/>
      <point x="453.491" y="644" type="line"/>
      <point x="179.491" y="644" type="line"/>
      <point x="159.299" y="549" type="line"/>
      <point x="114.299" y="549" type="line"/>
    </contour>
  </outline>
</glyph>
<glyph name="four" format="2">
  <advance width="550"/>
  <unicode hex="0034"/>
  <outline>
    <contour>
      <point x="343.245" y="708" type="line"/>
      <point x="436.245" y="708" type="line"/>
      <point x="88.0049" y="227" type="line"/>
      <point x="336.005" y="227" type="line"/>
      <point x="376.391" y="417" type="line"/>
      <point x="456.391" y="417" type="line"/>
      <point x="416.005" y="227" type="line"/>
      <point x="493.005" y="227" type="line"/>
      <point x="483.865" y="184" type="line"/>
      <point x="404.103" y="171" type="line"/>
      <point x="379.658" y="56" type="line"/>
      <point x="443.658" y="56" type="line"/>
      <point x="431.755" y="0" type="line"/>
      <point x="223.755" y="0" type="line"/>
      <point x="235.658" y="56" type="line"/>
      <point x="299.658" y="56" type="line"/>
      <point x="324.103" y="171" type="line"/>
      <point x="13.1025" y="171" type="line"/>
      <point x="25.0049" y="227" type="line"/>
    </contour>
  </outline>
</glyph>
<glyph name="five" format="2">
  <advance width="550"/>
  <unicode hex="0035"/>
  <outline>
    <contour>
      <point x="170.096" y="708" type="line"/>
      <point x="536.096" y="708" type="line"/>
      <point x="519.491" y="644" type="line"/>
      <point x="214.491" y="644" type="line"/>
      <point x="148.102" y="374" type="line"/>
      <point x="193.729" y="424"/>
      <point x="258.343" y="441"/>
      <point x="320.343" y="441" type="curve" smooth="yes"/>
      <point x="442.343" y="441"/>
      <point x="500.188" y="365"/>
      <point x="470.431" y="225" type="curve" smooth="yes"/>
      <point x="439.822" y="81"/>
      <point x="317.904" y="-8"/>
      <point x="166.904" y="-8" type="curve" smooth="yes"/>
      <point x="87.9043" y="-8"/>
      <point x="29.5811" y="14"/>
      <point x="-20.5547" y="51" type="curve"/>
      <point x="11.9238" y="105" type="line"/>
      <point x="63.209" y="64"/>
      <point x="95.8076" y="48"/>
      <point x="178.808" y="48" type="curve" smooth="yes"/>
      <point x="286.808" y="48"/>
      <point x="370.411" y="112"/>
      <point x="393.58" y="221" type="curve" smooth="yes"/>
      <point x="417.387" y="333"/>
      <point x="379.439" y="385"/>
      <point x="280.439" y="385" type="curve" smooth="yes"/>
      <point x="221.439" y="385"/>
      <point x="175.764" y="363"/>
      <point x="130.599" y="334" type="curve"/>
      <point x="82.5986" y="334" type="line"/>
    </contour>
  </outline>
</glyph>
<glyph name="six" format="2">
  <advance width="550"/>
  <unicode hex="0036"/>
  <outline>
    <contour>
      <point x="451.265" y="719" type="curve"/>
      <point x="445.211" y="667" type="line"/>
      <point x="315.26" y="639"/>
      <point x="157.69" y="514"/>
      <point x="120.493" y="339" type="curve"/>
      <point x="150.671" y="401"/>
      <point x="231.087" y="450"/>
      <point x="310.087" y="450" type="curve" smooth="yes"/>
      <point x="445.087" y="450"/>
      <point x="512.231" y="366"/>
      <point x="481.836" y="223" type="curve" smooth="yes"/>
      <point x="453.142" y="88"/>
      <point x="339.735" y="-8"/>
      <point x="202.735" y="-8" type="curve" smooth="yes"/>
      <point x="44.7354" y="-8"/>
      <point x="-11.709" y="84"/>
      <point x="35.9033" y="308" type="curve" smooth="yes"/>
      <point x="84.3662" y="536"/>
      <point x="269.762" y="679"/>
    </contour>
    <contour>
      <point x="286.184" y="394" type="curve" smooth="yes"/>
      <point x="188.184" y="394"/>
      <point x="120.792" y="331"/>
      <point x="99.749" y="232" type="curve" smooth="yes"/>
      <point x="73.8174" y="110"/>
      <point x="108.639" y="48"/>
      <point x="212.639" y="48" type="curve" smooth="yes"/>
      <point x="310.639" y="48"/>
      <point x="379.306" y="117"/>
      <point x="401.836" y="223" type="curve" smooth="yes"/>
      <point x="423.942" y="327"/>
      <point x="386.184" y="394"/>
    </contour>
  </outline>
</glyph>
<glyph name="seven" format="2">
  <advance width="550"/>
  <unicode hex="0037"/>
  <outline>
    <contour>
      <point x="127.245" y="708" type="line"/>
      <point x="567.245" y="708" type="line"/>
      <point x="554.491" y="648" type="line"/>
      <point x="169.755" y="0" type="line"/>
      <point x="79.7549" y="0" type="line"/>
      <point x="501.642" y="644" type="line"/>
      <point x="107.642" y="644" type="line"/>
    </contour>
  </outline>
</glyph>
<glyph name="eight" format="2">
  <advance width="550"/>
  <unicode hex="0038"/>
  <outline>
    <contour>
      <point x="350.839" y="716" type="curve" smooth="yes"/>
      <point x="483.839" y="716"/>
      <point x="548.897" y="641"/>
      <point x="526.579" y="536" type="curve" smooth="yes"/>
      <point x="510.212" y="459"/>
      <point x="453.821" y="396"/>
      <point x="385.295" y="370" type="curve"/>
      <point x="455.469" y="352"/>
      <point x="487.739" y="278"/>
      <point x="469.247" y="191" type="curve" smooth="yes"/>
      <point x="442.465" y="65"/>
      <point x="339.161" y="-7"/>
      <point x="197.161" y="-7" type="curve" smooth="yes"/>
      <point x="56.1611" y="-7"/>
      <point x="-15.96" y="63"/>
      <point x="10.8223" y="189" type="curve" smooth="yes"/>
      <point x="32.0771" y="289"/>
      <point x="84.1309" y="341"/>
      <point x="169.295" y="370" type="curve"/>
      <point x="106.033" y="397"/>
      <point x="82.0869" y="449"/>
      <point x="100.579" y="536" type="curve" smooth="yes"/>
      <point x="123.322" y="643"/>
      <point x="217.839" y="716"/>
    </contour>
    <contour>
      <point x="338.936" y="660" type="curve" smooth="yes"/>
      <point x="254.936" y="660"/>
      <point x="197.158" y="614"/>
      <point x="179.517" y="531" type="curve" smooth="yes"/>
      <point x="158.898" y="434"/>
      <point x="198.971" y="392"/>
      <point x="281.971" y="392" type="curve" smooth="yes"/>
      <point x="366.971" y="392"/>
      <point x="424.898" y="434"/>
      <point x="445.517" y="531" type="curve" smooth="yes"/>
      <point x="463.158" y="614"/>
      <point x="423.936" y="660"/>
    </contour>
    <contour>
      <point x="271.131" y="341" type="curve" smooth="yes"/>
      <point x="181.131" y="341"/>
      <point x="109.314" y="276"/>
      <point x="91.2471" y="191" type="curve" smooth="yes"/>
      <point x="71.4795" y="98"/>
      <point x="110.064" y="49"/>
      <point x="209.064" y="49" type="curve" smooth="yes"/>
      <point x="309.064" y="49"/>
      <point x="369.479" y="98"/>
      <point x="389.247" y="191" type="curve" smooth="yes"/>
      <point x="407.739" y="278"/>
      <point x="364.131" y="341"/>
    </contour>
  </outline>
</glyph>
<glyph name="nine" format="2">
  <advance width="550"/>
  <unicode hex="0039"/>
  <outline>
    <contour>
      <point x="358.265" y="716" type="curve" smooth="yes"/>
      <point x="512.265" y="716"/>
      <point x="570.56" y="628"/>
      <point x="527.836" y="427" type="curve" smooth="yes"/>
      <point x="477.46" y="190"/>
      <point x="270.537" y="21"/>
      <point x="67.7354" y="-11" type="curve"/>
      <point x="63.0879" y="33" type="line"/>
      <point x="234.229" y="76"/>
      <point x="402.223" y="203"/>
      <point x="437.72" y="370" type="curve"/>
      <point x="409.517" y="322"/>
      <point x="339.126" y="259"/>
      <point x="245.126" y="259" type="curve" smooth="yes"/>
      <point x="107.126" y="259"/>
      <point x="46.4062" y="345"/>
      <point x="75.5264" y="482" type="curve" smooth="yes"/>
      <point x="106.347" y="627"/>
      <point x="214.265" y="716"/>
    </contour>
    <contour>
      <point x="347.361" y="660" type="curve" smooth="yes"/>
      <point x="248.361" y="660"/>
      <point x="177.632" y="586"/>
      <point x="155.526" y="482" type="curve" smooth="yes"/>
      <point x="133.42" y="378"/>
      <point x="170.029" y="315"/>
      <point x="270.029" y="315" type="curve" smooth="yes"/>
      <point x="364.029" y="315"/>
      <point x="439.121" y="386"/>
      <point x="459.526" y="482" type="curve" smooth="yes"/>
      <point x="482.907" y="592"/>
      <point x="447.361" y="660"/>
    </contour>
  </outline>
</glyph>
<glyph name="A" format="2">
  <advance width="643"/>
  <unicode hex="0041"/>
  <anchor x="419" y="876" name="AccentCenter"/>
  <outline>
    <contour>
      <point x="469" y="708" type="line"/>
      <point x="551" y="56" type="line"/>
      <point x="591" y="56" type="line"/>
      <point x="580" y="0" type="line"/>
      <point x="402" y="0" type="line"/>
      <point x="405" y="56" type="line"/>
      <point x="455" y="56" type="line"/>
      <point x="444" y="185" type="line"/>
      <point x="140" y="185" type="line"/>
      <point x="68" y="56" type="line"/>
      <point x="123" y="56" type="line"/>
      <point x="110" y="0" type="line"/>
      <point x="-47" y="0" type="line"/>
      <point x="-33" y="56" type="line"/>
      <point x="2" y="56" type="line"/>
      <point x="351" y="669" type="line"/>
      <point x="359" y="708" type="line"/>
    </contour>
    <contour>
      <point x="399" y="651" type="line"/>
      <point x="166" y="243" type="line"/>
      <point x="442" y="243" type="line"/>
      <point x="406" y="651" type="line"/>
    </contour>
  </outline>
</glyph>
<glyph name="B" format="2">
  <advance width="667"/>
  <unicode hex="0042"/>
  <outline>
    <contour>
      <point x="126.245" y="708" type="line"/>
      <point x="447.245" y="708" type="line" smooth="yes"/>
      <point x="579.245" y="708"/>
      <point x="646.004" y="641"/>
      <point x="623.26" y="534" type="curve" smooth="yes"/>
      <point x="606.256" y="454"/>
      <point x="561.69" y="409"/>
      <point x="486.102" y="378" type="curve"/>
      <point x="564.638" y="357"/>
      <point x="605.097" y="298"/>
      <point x="583.629" y="197" type="curve" smooth="yes"/>
      <point x="557.484" y="74"/>
      <point x="457.755" y="0"/>
      <point x="317.755" y="0" type="curve" smooth="yes"/>
      <point x="-27.2451" y="0" type="line"/>
      <point x="-17.8926" y="44" type="line"/>
      <point x="58.8076" y="52" type="line"/>
      <point x="187.192" y="656" type="line"/>
      <point x="116.255" y="661" type="line"/>
    </contour>
    <contour>
      <point x="263.192" y="656" type="line"/>
      <point x="209.841" y="405" type="line"/>
      <point x="386.841" y="405" type="line" smooth="yes"/>
      <point x="476.841" y="405"/>
      <point x="529.318" y="459"/>
      <point x="546.535" y="540" type="curve" smooth="yes"/>
      <point x="562.689" y="616"/>
      <point x="525.192" y="656"/>
      <point x="434.192" y="656" type="curve" smooth="yes"/>
    </contour>
    <contour>
      <point x="198.362" y="351" type="line"/>
      <point x="134.808" y="52" type="line"/>
      <point x="328.808" y="52" type="line" smooth="yes"/>
      <point x="419.808" y="52"/>
      <point x="483.224" y="101"/>
      <point x="504.691" y="202" type="curve" smooth="yes"/>
      <point x="524.247" y="294"/>
      <point x="494.362" y="351"/>
      <point x="385.362" y="351" type="curve" smooth="yes"/>
    </contour>
  </outline>
</glyph>
<glyph name="C" format="2">
  <advance width="667"/>
  <unicode hex="0043"/>
  <outline>
    <contour>
      <point x="465.945" y="716" type="curve" smooth="yes"/>
      <point x="540.945" y="716"/>
      <point x="603.907" y="697"/>
      <point x="650.255" y="661" type="curve"/>
      <point x="611.145" y="477" type="line"/>
      <point x="538.145" y="477" type="line"/>
      <point x="571.091" y="632" type="line"/>
      <point x="543.279" y="647"/>
      <point x="501.617" y="658"/>
      <point x="463.617" y="658" type="curve"/>
      <point x="327.617" y="658"/>
      <point x="185.313" y="586"/>
      <point x="135.575" y="352" type="curve" smooth="yes"/>
      <point x="92.6387" y="150"/>
      <point x="172.958" y="48"/>
      <point x="326.958" y="48" type="curve" smooth="yes"/>
      <point x="401.958" y="48"/>
      <point x="485.421" y="69"/>
      <point x="537.586" y="98" type="curve"/>
      <point x="546.383" y="50" type="line"/>
      <point x="491.006" y="20"/>
      <point x="401.055" y="-8"/>
      <point x="306.055" y="-8" type="curve" smooth="yes"/>
      <point x="124.055" y="-8"/>
      <point x="7.32422" y="125"/>
      <point x="55.5752" y="352" type="curve" smooth="yes"/>
      <point x="109.989" y="608"/>
      <point x="271.945" y="716"/>
    </contour>
  </outline>
</glyph>
<glyph name="D" format="2">
  <advance width="672"/>
  <unicode hex="0044"/>
  <outline>
    <contour>
      <point x="123.245" y="708" type="line"/>
      <point x="382.245" y="708" type="line" smooth="yes"/>
      <point x="582.245" y="708"/>
      <point x="665.101" y="585"/>
      <point x="617.488" y="361" type="curve" smooth="yes"/>
      <point x="567.112" y="124"/>
      <point x="433.755" y="0"/>
      <point x="227.755" y="0" type="curve" smooth="yes"/>
      <point x="-27.2451" y="0" type="line"/>
      <point x="-19.8057" y="35" type="line"/>
      <point x="47.8076" y="52" type="line"/>
      <point x="176.192" y="656" type="line"/>
      <point x="116.443" y="676" type="line"/>
    </contour>
    <contour>
      <point x="256.192" y="656" type="line"/>
      <point x="127.808" y="52" type="line"/>
      <point x="240.808" y="52" type="line" smooth="yes"/>
      <point x="395.808" y="52"/>
      <point x="496.401" y="163"/>
      <point x="538.488" y="361" type="curve" smooth="yes"/>
      <point x="577.811" y="546"/>
      <point x="522.192" y="656"/>
      <point x="371.192" y="656" type="curve" smooth="yes"/>
    </contour>
  </outline>
</glyph>
<glyph name="E" format="2">
  <advance width="588"/>
  <unicode hex="0045"/>
  <anchor x="393.805" y="880" name="AccentCenter"/>
  <outline>
    <contour>
      <point x="123.245" y="708" type="line"/>
      <point x="593.245" y="708" type="line"/>
      <point x="561.149" y="557" type="line"/>
      <point x="505.149" y="557" type="line"/>
      <point x="526.404" y="657" type="line"/>
      <point x="256.404" y="657" type="line"/>
      <point x="200.715" y="395" type="line"/>
      <point x="380.715" y="395" type="line"/>
      <point x="396.231" y="468" type="line"/>
      <point x="452.231" y="468" type="line"/>
      <point x="408.232" y="261" type="line"/>
      <point x="352.232" y="261" type="line"/>
      <point x="368.812" y="339" type="line"/>
      <point x="188.812" y="339" type="line"/>
      <point x="127.808" y="52" type="line"/>
      <point x="421.808" y="52" type="line"/>
      <point x="445.614" y="164" type="line"/>
      <point x="503.614" y="164" type="line"/>
      <point x="468.755" y="0" type="line"/>
      <point x="-27.2451" y="0" type="line"/>
      <point x="-20.2305" y="33" type="line"/>
      <point x="47.8076" y="52" type="line"/>
      <point x="176.192" y="656" type="line"/>
      <point x="115.593" y="672" type="line"/>
    </contour>
  </outline>
</glyph>
<glyph name="F" format="2">
  <advance width="589"/>
  <unicode hex="0046"/>
  <outline>
    <contour>
      <point x="123.245" y="708" type="line"/>
      <point x="629.245" y="708" type="line"/>
      <point x="600.55" y="573" type="line"/>
      <point x="542.55" y="573" type="line"/>
      <point x="560.192" y="656" type="line"/>
      <point x="265.192" y="656" type="line"/>
      <point x="209.715" y="395" type="line"/>
      <point x="467.715" y="395" type="line"/>
      <point x="455.812" y="339" type="line"/>
      <point x="197.812" y="339" type="line"/>
      <point x="136.808" y="52" type="line"/>
      <point x="219.808" y="52" type="line"/>
      <point x="208.755" y="0" type="line"/>
      <point x="-27.2451" y="0" type="line"/>
      <point x="-16.1924" y="52" type="line"/>
      <point x="56.8076" y="52" type="line"/>
      <point x="185.192" y="656" type="line"/>
      <point x="112.192" y="656" type="line"/>
    </contour>
  </outline>
</glyph>
<glyph name="G" format="2">
  <advance width="688"/>
  <unicode hex="0047"/>
  <outline>
    <contour>
      <point x="460.945" y="716" type="curve" smooth="yes"/>
      <point x="542.945" y="716"/>
      <point x="597.82" y="706"/>
      <point x="662.168" y="670" type="curve"/>
      <point x="634.11" y="538" type="line"/>
      <point x="565.11" y="538" type="line"/>
      <point x="587.004" y="641" type="line"/>
      <point x="547.192" y="656"/>
      <point x="519.893" y="664"/>
      <point x="461.893" y="664" type="curve" smooth="yes"/>
      <point x="325.893" y="664"/>
      <point x="176.299" y="553"/>
      <point x="133.575" y="352" type="curve" smooth="yes"/>
      <point x="89.7881" y="146"/>
      <point x="181.32" y="45"/>
      <point x="334.32" y="45" type="curve" smooth="yes"/>
      <point x="374.32" y="45"/>
      <point x="402.383" y="50"/>
      <point x="448.296" y="59" type="curve"/>
      <point x="508.024" y="340" type="line"/>
      <point x="325.024" y="340" type="line"/>
      <point x="336.077" y="392" type="line"/>
      <point x="648.077" y="392" type="line"/>
      <point x="632.024" y="340" type="line"/>
      <point x="588.024" y="340" type="line"/>
      <point x="521.069" y="25" type="line"/>
      <point x="453.817" y="5"/>
      <point x="396.055" y="-8"/>
      <point x="316.055" y="-8" type="curve" smooth="yes"/>
      <point x="140.055" y="-8"/>
      <point x="0.0976562" y="91"/>
      <point x="55.5752" y="352" type="curve" smooth="yes"/>
      <point x="102.125" y="571"/>
      <point x="268.945" y="716"/>
    </contour>
  </outline>
</glyph>
<glyph name="H" format="2">
  <advance width="714"/>
  <unicode hex="0048"/>
  <outline>
    <contour>
      <point x="331.245" y="708" type="line"/>
      <point x="319.342" y="652" type="line"/>
      <point x="255.342" y="652" type="line"/>
      <point x="203.266" y="407" type="line"/>
      <point x="533.266" y="407" type="line"/>
      <point x="585.342" y="652" type="line"/>
      <point x="521.342" y="652" type="line"/>
      <point x="533.245" y="708" type="line"/>
      <point x="741.245" y="708" type="line"/>
      <point x="729.342" y="652" type="line"/>
      <point x="665.342" y="652" type="line"/>
      <point x="538.658" y="56" type="line"/>
      <point x="602.658" y="56" type="line"/>
      <point x="590.755" y="0" type="line"/>
      <point x="382.755" y="0" type="line"/>
      <point x="394.658" y="56" type="line"/>
      <point x="458.658" y="56" type="line"/>
      <point x="521.362" y="351" type="line"/>
      <point x="191.362" y="351" type="line"/>
      <point x="128.658" y="56" type="line"/>
      <point x="192.658" y="56" type="line"/>
      <point x="180.755" y="0" type="line"/>
      <point x="-27.2451" y="0" type="line"/>
      <point x="-15.3418" y="56" type="line"/>
      <point x="48.6582" y="56" type="line"/>
      <point x="175.342" y="652" type="line"/>
      <point x="111.342" y="652" type="line"/>
      <point x="123.245" y="708" type="line"/>
    </contour>
  </outline>
</glyph>
<glyph name="I" format="2">
  <advance width="304"/>
  <unicode hex="0049"/>
  <anchor x="241.805" y="880" name="AccentCenter"/>
  <outline>
    <contour>
      <point x="123.245" y="708" type="line"/>
      <point x="331.245" y="708" type="line"/>
      <point x="322.955" y="669" type="line"/>
      <point x="255.342" y="652" type="line"/>
      <point x="128.658" y="56" type="line"/>
      <point x="189.895" y="43" type="line"/>
      <point x="180.755" y="0" type="line"/>
      <point x="-27.2451" y="0" type="line"/>
      <point x="-18.1055" y="43" type="line"/>
      <point x="48.6582" y="56" type="line"/>
      <point x="175.342" y="652" type="line"/>
      <point x="114.955" y="669" type="line"/>
    </contour>
  </outline>
</glyph>
<glyph name="J" format="2">
  <advance width="382"/>
  <unicode hex="004A"/>
  <outline>
    <contour>
      <point x="163.096" y="708" type="line"/>
      <point x="402.096" y="708" type="line"/>
      <point x="296.455" y="211" type="line" smooth="yes"/>
      <point x="280.301" y="135"/>
      <point x="226.904" y="-8"/>
      <point x="49.9043" y="-8" type="curve" smooth="yes"/>
      <point x="18.9043" y="-8"/>
      <point x="-7.45801" y="-5"/>
      <point x="-34.3945" y="0" type="curve"/>
      <point x="-19.1289" y="53" type="line"/>
      <point x="52.8076" y="48" type="line" smooth="yes"/>
      <point x="123.958" y="44"/>
      <point x="186.696" y="71"/>
      <point x="215.817" y="208" type="curve" smooth="yes"/>
      <point x="310.192" y="652" type="line"/>
      <point x="151.192" y="652" type="line"/>
    </contour>
  </outline>
</glyph>
<glyph name="K" format="2">
  <advance width="654"/>
  <unicode hex="004B"/>
  <outline>
    <contour>
      <point x="123.245" y="708" type="line"/>
      <point x="351.245" y="708" type="line"/>
      <point x="341.893" y="664" type="line"/>
      <point x="265.342" y="652" type="line"/>
      <point x="198.812" y="339" type="line"/>
      <point x="554.342" y="652" type="line"/>
      <point x="492.317" y="666" type="line"/>
      <point x="501.245" y="708" type="line"/>
      <point x="694.245" y="708" type="line"/>
      <point x="687.019" y="674" type="line"/>
      <point x="630.342" y="652" type="line"/>
      <point x="284.725" y="348" type="line"/>
      <point x="481.658" y="56" type="line"/>
      <point x="564.895" y="43" type="line"/>
      <point x="555.755" y="0" type="line"/>
      <point x="412.755" y="0" type="line"/>
      <point x="200.111" y="331" type="line"/>
      <point x="197.111" y="331" type="line"/>
      <point x="138.658" y="56" type="line"/>
      <point x="209.895" y="43" type="line"/>
      <point x="200.755" y="0" type="line"/>
      <point x="-27.2451" y="0" type="line"/>
      <point x="-18.1055" y="43" type="line"/>
      <point x="58.6582" y="56" type="line"/>
      <point x="185.342" y="652" type="line"/>
      <point x="113.893" y="664" type="line"/>
    </contour>
  </outline>
</glyph>
<glyph name="L" format="2">
  <advance width="514"/>
  <unicode hex="004C"/>
  <outline>
    <contour>
      <point x="113.245" y="708" type="line"/>
      <point x="321.245" y="708" type="line"/>
      <point x="309.342" y="652" type="line"/>
      <point x="245.342" y="652" type="line"/>
      <point x="118.658" y="56" type="line"/>
      <point x="388.658" y="56" type="line"/>
      <point x="405.237" y="134" type="line"/>
      <point x="465.237" y="134" type="line"/>
      <point x="436.755" y="0" type="line"/>
      <point x="-37.2451" y="0" type="line"/>
      <point x="-28.1055" y="43" type="line"/>
      <point x="38.6582" y="56" type="line"/>
      <point x="165.342" y="652" type="line"/>
      <point x="101.342" y="652" type="line"/>
    </contour>
  </outline>
</glyph>
<glyph name="M" format="2">
  <advance width="791"/>
  <unicode hex="004D"/>
  <outline>
    <contour>
      <point x="123.245" y="708" type="line"/>
      <point x="272.245" y="708" type="line"/>
      <point x="387.672" y="296" type="line"/>
      <point x="665.245" y="708" type="line"/>
      <point x="818.245" y="708" type="line"/>
      <point x="809.743" y="668" type="line"/>
      <point x="742.342" y="652" type="line"/>
      <point x="615.658" y="56" type="line"/>
      <point x="676.683" y="42" type="line"/>
      <point x="667.755" y="0" type="line"/>
      <point x="449.755" y="0" type="line"/>
      <point x="458.683" y="42" type="line"/>
      <point x="535.658" y="56" type="line"/>
      <point x="650.014" y="594" type="line"/>
      <point x="379.267" y="200" type="line"/>
      <point x="325.267" y="200" type="line"/>
      <point x="213.699" y="569" type="line"/>
      <point x="104.658" y="56" type="line"/>
      <point x="175.683" y="42" type="line"/>
      <point x="166.755" y="0" type="line"/>
      <point x="-27.2451" y="0" type="line"/>
      <point x="-18.3174" y="42" type="line"/>
      <point x="48.6582" y="56" type="line"/>
      <point x="175.342" y="652" type="line"/>
      <point x="114.743" y="668" type="line"/>
    </contour>
  </outline>
</glyph>
<glyph name="N" format="2">
  <advance width="701"/>
  <unicode hex="004E"/>
  <outline>
    <contour>
      <point x="123.245" y="708" type="line"/>
      <point x="274.245" y="708" type="line"/>
      <point x="495.977" y="161" type="line"/>
      <point x="600.342" y="652" type="line"/>
      <point x="535.317" y="666" type="line"/>
      <point x="544.245" y="708" type="line"/>
      <point x="736.245" y="708" type="line"/>
      <point x="727.317" y="666" type="line"/>
      <point x="656.342" y="652" type="line"/>
      <point x="520.519" y="13" type="line"/>
      <point x="465.755" y="0" type="line"/>
      <point x="218.55" y="573" type="line"/>
      <point x="108.658" y="56" type="line"/>
      <point x="173.683" y="42" type="line"/>
      <point x="164.755" y="0" type="line"/>
      <point x="-27.2451" y="0" type="line"/>
      <point x="-18.3174" y="42" type="line"/>
      <point x="52.6582" y="56" type="line"/>
      <point x="179.342" y="652" type="line"/>
      <point x="115.381" y="671" type="line"/>
    </contour>
  </outline>
</glyph>
<glyph name="O" format="2">
  <advance width="704"/>
  <unicode hex="004F"/>
  <anchor x="464.954" y="876" name="AccentCenter"/>
  <outline>
    <contour>
      <point x="431.945" y="716" type="curve" smooth="yes"/>
      <point x="625.945" y="716"/>
      <point x="690.299" y="553"/>
      <point x="649.062" y="359" type="curve" smooth="yes"/>
      <point x="608.039" y="166"/>
      <point x="473.055" y="-8"/>
      <point x="278.055" y="-8" type="curve" smooth="yes"/>
      <point x="78.0547" y="-8"/>
      <point x="16.0391" y="166"/>
      <point x="56.4248" y="356" type="curve" smooth="yes"/>
      <point x="98.0859" y="552"/>
      <point x="230.945" y="716"/>
    </contour>
    <contour>
      <point x="420.042" y="660" type="curve" smooth="yes"/>
      <point x="287.042" y="660"/>
      <point x="178.299" y="553"/>
      <point x="136.425" y="356" type="curve" smooth="yes"/>
      <point x="93.9141" y="156"/>
      <point x="156.958" y="48"/>
      <point x="289.958" y="48" type="curve" smooth="yes"/>
      <point x="422.958" y="48"/>
      <point x="525.914" y="156"/>
      <point x="568.425" y="356" type="curve" smooth="yes"/>
      <point x="610.299" y="553"/>
      <point x="553.042" y="660"/>
    </contour>
  </outline>
</glyph>
<glyph name="P" format="2">
  <advance width="634"/>
  <unicode hex="0050"/>
  <outline>
    <contour>
      <point x="123.245" y="708" type="line"/>
      <point x="414.245" y="708" type="line" smooth="yes"/>
      <point x="551.245" y="708"/>
      <point x="636.878" y="631"/>
      <point x="607.12" y="491" type="curve" smooth="yes"/>
      <point x="574.812" y="339"/>
      <point x="450.72" y="268"/>
      <point x="298.72" y="268" type="curve" smooth="yes"/>
      <point x="173.72" y="268" type="line"/>
      <point x="128.658" y="56" type="line"/>
      <point x="189.045" y="39" type="line"/>
      <point x="180.755" y="0" type="line"/>
      <point x="-27.2451" y="0" type="line"/>
      <point x="-18.9551" y="39" type="line"/>
      <point x="52.6582" y="56" type="line"/>
      <point x="179.342" y="652" type="line"/>
      <point x="114.53" y="667" type="line"/>
    </contour>
    <contour>
      <point x="255.342" y="652" type="line"/>
      <point x="185.623" y="324" type="line"/>
      <point x="309.623" y="324" type="line" smooth="yes"/>
      <point x="421.623" y="324"/>
      <point x="502.676" y="376"/>
      <point x="527.12" y="491" type="curve" smooth="yes"/>
      <point x="550.289" y="600"/>
      <point x="494.342" y="652"/>
      <point x="397.342" y="652" type="curve" smooth="yes"/>
    </contour>
  </outline>
</glyph>
<glyph name="Q" format="2">
  <advance width="692"/>
  <unicode hex="0051"/>
  <outline>
    <contour>
      <point x="447.037" y="716" type="curve" smooth="yes"/>
      <point x="641.037" y="716"/>
      <point x="705.391" y="553"/>
      <point x="664.154" y="359" type="curve" smooth="yes"/>
      <point x="626.106" y="180"/>
      <point x="505.948" y="24"/>
      <point x="333.784" y="-5" type="curve"/>
      <point x="603.479" y="-77" type="line"/>
      <point x="573.963" y="-150" type="line"/>
      <point x="233.146" y="-8" type="line" smooth="yes"/>
      <point x="67.8125" y="61"/>
      <point x="34.5322" y="182"/>
      <point x="71.5166" y="356" type="curve" smooth="yes"/>
      <point x="113.178" y="552"/>
      <point x="246.037" y="716"/>
    </contour>
    <contour>
      <point x="435.134" y="660" type="curve" smooth="yes"/>
      <point x="302.134" y="660"/>
      <point x="193.391" y="553"/>
      <point x="151.517" y="356" type="curve" smooth="yes"/>
      <point x="109.005" y="156"/>
      <point x="172.049" y="48"/>
      <point x="305.049" y="48" type="curve" smooth="yes"/>
      <point x="438.049" y="48"/>
      <point x="541.005" y="156"/>
      <point x="583.517" y="356" type="curve" smooth="yes"/>
      <point x="625.391" y="553"/>
      <point x="568.134" y="660"/>
    </contour>
  </outline>
</glyph>
<glyph name="R" format="2">
  <advance width="630"/>
  <unicode hex="0052"/>
  <outline>
    <contour>
      <point x="123.245" y="708" type="line"/>
      <point x="399.245" y="708" type="line" smooth="yes"/>
      <point x="543.245" y="708"/>
      <point x="629.516" y="634"/>
      <point x="601.458" y="502" type="curve" smooth="yes"/>
      <point x="578.502" y="394"/>
      <point x="494.348" y="318"/>
      <point x="389.609" y="291" type="curve"/>
      <point x="501.658" y="56" type="line"/>
      <point x="556.981" y="34" type="line"/>
      <point x="549.755" y="0" type="line"/>
      <point x="455.755" y="0" type="line"/>
      <point x="415.045" y="39" type="line"/>
      <point x="310.696" y="282" type="line"/>
      <point x="186.696" y="282" type="line"/>
      <point x="138.658" y="56" type="line"/>
      <point x="212.47" y="41" type="line"/>
      <point x="203.755" y="0" type="line"/>
      <point x="-27.2451" y="0" type="line"/>
      <point x="-18.5303" y="41" type="line"/>
      <point x="58.6582" y="56" type="line"/>
      <point x="185.342" y="652" type="line"/>
      <point x="115.381" y="671" type="line"/>
    </contour>
    <contour>
      <point x="198.599" y="338" type="line"/>
      <point x="312.599" y="338" type="line" smooth="yes"/>
      <point x="424.599" y="338"/>
      <point x="495.739" y="381"/>
      <point x="521.884" y="504" type="curve" smooth="yes"/>
      <point x="545.902" y="617"/>
      <point x="476.342" y="652"/>
      <point x="379.342" y="652" type="curve" smooth="yes"/>
      <point x="265.342" y="652" type="line"/>
    </contour>
  </outline>
</glyph>
<glyph name="S" format="2">
  <advance width="590"/>
  <unicode hex="0053"/>
  <outline>
    <contour>
      <point x="387.945" y="716" type="curve" smooth="yes"/>
      <point x="466.945" y="716"/>
      <point x="528.994" y="688"/>
      <point x="578.042" y="660" type="curve"/>
      <point x="547.859" y="518" type="line"/>
      <point x="473.859" y="518" type="line"/>
      <point x="497.24" y="628" type="line"/>
      <point x="467.066" y="646"/>
      <point x="431.042" y="660"/>
      <point x="375.042" y="660" type="curve" smooth="yes"/>
      <point x="285.042" y="660"/>
      <point x="200.24" y="628"/>
      <point x="181.961" y="542" type="curve" smooth="yes"/>
      <point x="164.531" y="460"/>
      <point x="178.241" y="421"/>
      <point x="293.502" y="394" type="curve" smooth="yes"/>
      <point x="373.464" y="375" type="line" smooth="yes"/>
      <point x="482.938" y="349"/>
      <point x="527.334" y="285"/>
      <point x="505.865" y="184" type="curve" smooth="yes"/>
      <point x="482.909" y="76"/>
      <point x="373.055" y="-8"/>
      <point x="215.055" y="-8" type="curve" smooth="yes"/>
      <point x="111.055" y="-8"/>
      <point x="48.2188" y="21"/>
      <point x="-14.4912" y="60" type="curve"/>
      <point x="14.6289" y="197" type="line"/>
      <point x="85.6289" y="197" type="line"/>
      <point x="64.7354" y="94" type="line"/>
      <point x="98.9961" y="67"/>
      <point x="160.958" y="48"/>
      <point x="230.958" y="48" type="curve" smooth="yes"/>
      <point x="335.958" y="48"/>
      <point x="407.247" y="87"/>
      <point x="425.952" y="175" type="curve" smooth="yes"/>
      <point x="442.532" y="253"/>
      <point x="407.247" y="294"/>
      <point x="304.348" y="318" type="curve" smooth="yes"/>
      <point x="230.961" y="335" type="line" smooth="yes"/>
      <point x="115.7" y="362"/>
      <point x="76.8789" y="424"/>
      <point x="98.7725" y="527" type="curve" smooth="yes"/>
      <point x="121.091" y="632"/>
      <point x="230.945" y="716"/>
    </contour>
  </outline>
</glyph>
<glyph name="T" format="2">
  <advance width="622"/>
  <unicode hex="0054"/>
  <outline>
    <contour>
      <point x="113.245" y="708" type="line"/>
      <point x="659.245" y="708" type="line"/>
      <point x="625.448" y="549" type="line"/>
      <point x="569.448" y="549" type="line"/>
      <point x="591.342" y="652" type="line"/>
      <point x="418.342" y="652" type="line"/>
      <point x="291.658" y="56" type="line"/>
      <point x="362.895" y="43" type="line"/>
      <point x="353.755" y="0" type="line"/>
      <point x="125.755" y="0" type="line"/>
      <point x="134.895" y="43" type="line"/>
      <point x="211.658" y="56" type="line"/>
      <point x="338.342" y="652" type="line"/>
      <point x="157.342" y="652" type="line"/>
      <point x="135.448" y="549" type="line"/>
      <point x="79.4482" y="549" type="line"/>
    </contour>
  </outline>
</glyph>
<glyph name="U" format="2">
  <advance width="667"/>
  <unicode hex="0055"/>
  <anchor x="391.242" y="880" name="AccentCenter"/>
  <outline>
    <contour>
      <point x="111.883" y="708" type="line"/>
      <point x="338.883" y="708" type="line"/>
      <point x="326.979" y="652" type="line"/>
      <point x="252.979" y="652" type="line"/>
      <point x="162.855" y="228" type="line" smooth="yes"/>
      <point x="133.735" y="91"/>
      <point x="178.17" y="46"/>
      <point x="280.17" y="46" type="curve" smooth="yes"/>
      <point x="381.17" y="46"/>
      <point x="449.948" y="92"/>
      <point x="479.068" y="229" type="curve" smooth="yes"/>
      <point x="569.192" y="653" type="line"/>
      <point x="499.192" y="653" type="line"/>
      <point x="510.883" y="708" type="line"/>
      <point x="706.883" y="708" type="line"/>
      <point x="695.192" y="653" type="line"/>
      <point x="625.192" y="653" type="line"/>
      <point x="535.068" y="229" type="line" smooth="yes"/>
      <point x="501.271" y="70"/>
      <point x="389.117" y="-6"/>
      <point x="260.117" y="-6" type="curve" smooth="yes"/>
      <point x="130.117" y="-6"/>
      <point x="49.8467" y="68"/>
      <point x="84.0684" y="229" type="curve" smooth="yes"/>
      <point x="174.192" y="653" type="line"/>
      <point x="100.192" y="653" type="line"/>
    </contour>
  </outline>
</glyph>
<glyph name="V" format="2">
  <advance width="694"/>
  <unicode hex="0056"/>
  <outline>
    <contour>
      <point x="87.2451" y="708" type="line"/>
      <point x="295.245" y="708" type="line"/>
      <point x="283.342" y="652" type="line"/>
      <point x="220.342" y="652" type="line"/>
      <point x="312.32" y="45" type="line"/>
      <point x="638.342" y="652" type="line"/>
      <point x="573.342" y="652" type="line"/>
      <point x="585.245" y="708" type="line"/>
      <point x="757.245" y="708" type="line"/>
      <point x="745.342" y="652" type="line"/>
      <point x="697.342" y="652" type="line"/>
      <point x="346.755" y="0" type="line"/>
      <point x="228.755" y="0" type="line"/>
      <point x="136.342" y="652" type="line"/>
      <point x="75.3418" y="652" type="line"/>
    </contour>
  </outline>
</glyph>
<glyph name="W" format="2">
  <advance width="932"/>
  <unicode hex="0057"/>
  <outline>
    <contour>
      <point x="87.2451" y="708" type="line"/>
      <point x="295.245" y="708" type="line"/>
      <point x="283.342" y="652" type="line"/>
      <point x="220.342" y="652" type="line"/>
      <point x="238.17" y="49" type="line"/>
      <point x="544.245" y="708" type="line"/>
      <point x="589.245" y="708" type="line"/>
      <point x="626.17" y="49" type="line"/>
      <point x="870.342" y="652" type="line"/>
      <point x="815.342" y="652" type="line"/>
      <point x="827.245" y="708" type="line"/>
      <point x="995.245" y="708" type="line"/>
      <point x="983.342" y="652" type="line"/>
      <point x="931.342" y="652" type="line"/>
      <point x="665.755" y="0" type="line"/>
      <point x="541.755" y="0" type="line"/>
      <point x="521.236" y="548" type="line"/>
      <point x="277.755" y="0" type="line"/>
      <point x="153.755" y="0" type="line"/>
      <point x="136.342" y="652" type="line"/>
      <point x="75.3418" y="652" type="line"/>
    </contour>
  </outline>
</glyph>
<glyph name="X" format="2">
  <advance width="617"/>
  <unicode hex="0058"/>
  <outline>
    <contour>
      <point x="91.2451" y="708" type="line"/>
      <point x="79.3418" y="652" type="line"/>
      <point x="152.195" y="652" type="line"/>
      <point x="267.536" y="333" type="line"/>
      <point x="30.2793" y="56" type="line"/>
      <point x="-47.3418" y="56" type="line"/>
      <point x="-59.2451" y="0" type="line"/>
      <point x="122.755" y="0" type="line"/>
      <point x="134.658" y="56" type="line"/>
      <point x="88.2793" y="56" type="line"/>
      <point x="285.546" y="286" type="line"/>
      <point x="365.658" y="56" type="line"/>
      <point x="314.658" y="56" type="line"/>
      <point x="302.755" y="0" type="line"/>
      <point x="525.755" y="0" type="line"/>
      <point x="537.658" y="56" type="line"/>
      <point x="464.658" y="56" type="line"/>
      <point x="346.526" y="380" type="line"/>
      <point x="584.342" y="652" type="line"/>
      <point x="664.342" y="652" type="line"/>
      <point x="676.245" y="708" type="line"/>
      <point x="494.245" y="708" type="line"/>
      <point x="482.342" y="652" type="line"/>
      <point x="526.342" y="652" type="line"/>
      <point x="329.304" y="426" type="line"/>
      <point x="251.195" y="652" type="line"/>
      <point x="302.342" y="652" type="line"/>
      <point x="314.245" y="708" type="line"/>
    </contour>
  </outline>
</glyph>
<glyph name="Y" format="2">
  <advance width="619"/>
  <unicode hex="0059"/>
  <anchor x="429.805" y="880" name="AccentCenter"/>
  <outline>
    <contour>
      <point x="82.2451" y="708" type="line"/>
      <point x="305.245" y="708" type="line"/>
      <point x="293.342" y="652" type="line"/>
      <point x="235.342" y="652" type="line"/>
      <point x="325.889" y="377" type="line"/>
      <point x="555.342" y="652" type="line"/>
      <point x="493.342" y="652" type="line"/>
      <point x="505.245" y="708" type="line"/>
      <point x="687.245" y="708" type="line"/>
      <point x="675.342" y="652" type="line"/>
      <point x="620.342" y="652" type="line"/>
      <point x="339.223" y="308" type="line"/>
      <point x="285.658" y="56" type="line"/>
      <point x="349.658" y="56" type="line"/>
      <point x="337.755" y="0" type="line"/>
      <point x="129.755" y="0" type="line"/>
      <point x="141.658" y="56" type="line"/>
      <point x="205.658" y="56" type="line"/>
      <point x="257.31" y="299" type="line"/>
      <point x="136.342" y="652" type="line"/>
      <point x="70.3418" y="652" type="line"/>
    </contour>
  </outline>
</glyph>
<glyph name="Z" format="2">
  <advance width="572"/>
  <unicode hex="005A"/>
  <outline>
    <contour>
      <point x="107.245" y="708" type="line"/>
      <point x="615.245" y="708" type="line"/>
      <point x="603.342" y="652" type="line"/>
      <point x="63.6582" y="56" type="line"/>
      <point x="432.658" y="56" type="line"/>
      <point x="446.262" y="120" type="line"/>
      <point x="490.262" y="120" type="line"/>
      <point x="464.755" y="0" type="line"/>
      <point x="-43.2451" y="0" type="line"/>
      <point x="-31.3418" y="56" type="line"/>
      <point x="512.342" y="652" type="line"/>
      <point x="139.342" y="652" type="line"/>
      <point x="125.738" y="588" type="line"/>
      <point x="81.7383" y="588" type="line"/>
    </contour>
  </outline>
</glyph>
<glyph name="bracketleft" format="2">
  <advance width="326"/>
  <unicode hex="005B"/>
  <outline>
    <contour>
      <point x="157.844" y="819" type="line"/>
      <point x="379.844" y="819" type="line"/>
      <point x="367.94" y="763" type="line"/>
      <point x="225.94" y="763" type="line"/>
      <point x="62.0596" y="-8" type="line"/>
      <point x="204.06" y="-8" type="line"/>
      <point x="192.156" y="-64" type="line"/>
      <point x="-29.8438" y="-64" type="line"/>
    </contour>
  </outline>
</glyph>
<glyph name="bracketright" format="2">
  <advance width="326"/>
  <unicode hex="005D"/>
  <outline>
    <contour>
      <point x="133.844" y="819" type="line"/>
      <point x="355.844" y="819" type="line"/>
      <point x="168.156" y="-64" type="line"/>
      <point x="-53.8438" y="-64" type="line"/>
      <point x="-41.9404" y="-8" type="line"/>
      <point x="102.06" y="-8" type="line"/>
      <point x="265.94" y="763" type="line"/>
      <point x="121.94" y="763" type="line"/>
    </contour>
  </outline>
</glyph>
<glyph name="a" format="2">
  <advance width="538"/>
  <unicode hex="0061"/>
  <image fileName="dc618929-a55f-466c-963a-781cd6bd16fe.png" xScale="1.5574777981803578" yScale="1.5574777981803576" xOffset="-801.0" yOffset="-2373.0" color="0,0,0,0.26143"/>
  <guideline x="0" y="260" angle="0" name="ItalicCenter" identifier="fontra-guideline-0"/>
  <anchor x="357.762" y="687" name="AccentCenter"/>
  <anchor x="347.762" y="687" name="Ring"/>
  <outline>
    <contour>
      <point x="293" y="528" type="curve" smooth="yes"/>
      <point x="356" y="528"/>
      <point x="396" y="493"/>
      <point x="413" y="460" type="curve"/>
      <point x="428" y="535" type="line"/>
      <point x="505" y="521" type="line"/>
      <point x="406" y="58" type="line"/>
      <point x="490" y="41" type="line"/>
      <point x="473" y="0" type="line"/>
      <point x="399" y="0" type="line"/>
      <point x="357" y="9"/>
      <point x="335" y="29"/>
      <point x="325" y="54" type="curve"/>
      <point x="333" y="89" type="line"/>
      <point x="182" y="-8" type="line"/>
      <point x="75" y="3"/>
      <point x="31" y="66"/>
      <point x="31" y="169" type="curve" smooth="yes"/>
      <point x="31" y="388"/>
      <point x="154" y="527"/>
    </contour>
    <contour>
      <point x="298" y="474" type="curve" smooth="yes"/>
      <point x="167" y="474"/>
      <point x="111" y="317"/>
      <point x="111" y="180" type="curve" smooth="yes"/>
      <point x="111" y="111"/>
      <point x="122" y="68"/>
      <point x="189" y="56" type="curve"/>
      <point x="347" y="155" type="line"/>
      <point x="401" y="406" type="line"/>
      <point x="385" y="437"/>
      <point x="354" y="474"/>
    </contour>
  </outline>
</glyph>
<glyph name="b" format="2">
  <advance width="578"/>
  <unicode hex="0062"/>
  <outline>
    <contour>
      <point x="108.096" y="708" type="line"/>
      <point x="261.096" y="708" type="line"/>
      <point x="210.932" y="472" type="line"/>
      <point x="252.797" y="509"/>
      <point x="305" y="528"/>
      <point x="368" y="528" type="curve" smooth="yes"/>
      <point x="477" y="528"/>
      <point x="524" y="441"/>
      <point x="524" y="340" type="curve" smooth="yes"/>
      <point x="524" y="87"/>
      <point x="383.904" y="-8"/>
      <point x="231.904" y="-8" type="curve" smooth="yes"/>
      <point x="122.904" y="-8"/>
      <point x="77.7305" y="10"/>
      <point x="38.8945" y="39" type="curve"/>
      <point x="170.042" y="656" type="line"/>
      <point x="97.042" y="656" type="line"/>
    </contour>
    <contour>
      <point x="330" y="471" type="curve" smooth="yes"/>
      <point x="277" y="471"/>
      <point x="233.405" y="446"/>
      <point x="199.666" y="419" type="curve"/>
      <point x="125.271" y="69" type="line"/>
      <point x="144.721" y="57"/>
      <point x="170.958" y="44"/>
      <point x="234.958" y="44" type="curve" smooth="yes"/>
      <point x="341.958" y="44"/>
      <point x="443" y="127"/>
      <point x="443" y="338" type="curve" smooth="yes"/>
      <point x="443" y="406"/>
      <point x="416" y="471"/>
    </contour>
  </outline>
</glyph>
<glyph name="c" format="2">
  <advance width="482"/>
  <unicode hex="0063"/>
  <outline>
    <contour>
      <point x="316" y="528" type="curve" smooth="yes"/>
      <point x="386" y="528"/>
      <point x="433" y="513"/>
      <point x="481" y="478" type="curve"/>
      <point x="429" y="334" type="line"/>
      <point x="359" y="345" type="line"/>
      <point x="401" y="461" type="line"/>
      <point x="374" y="472"/>
      <point x="348" y="476"/>
      <point x="315" y="476" type="curve" smooth="yes"/>
      <point x="218" y="476"/>
      <point x="129" y="388"/>
      <point x="129" y="188" type="curve" smooth="yes"/>
      <point x="129" y="105"/>
      <point x="170" y="44"/>
      <point x="273" y="44" type="curve" smooth="yes"/>
      <point x="327" y="44"/>
      <point x="374" y="62"/>
      <point x="432" y="90" type="curve"/>
      <point x="426" y="34" type="line"/>
      <point x="361" y="4"/>
      <point x="305" y="-8"/>
      <point x="239" y="-8" type="curve" smooth="yes"/>
      <point x="88" y="-8"/>
      <point x="46" y="103"/>
      <point x="46" y="188" type="curve" smooth="yes"/>
      <point x="46" y="419"/>
      <point x="183" y="528"/>
    </contour>
  </outline>
</glyph>
<glyph name="d" format="2">
  <advance width="604"/>
  <unicode hex="0064"/>
  <outline>
    <contour>
      <point x="414.096" y="708" type="line"/>
      <point x="400.042" y="656" type="line"/>
      <point x="485.042" y="656" type="line"/>
      <point x="447.633" y="480" type="line"/>
      <point x="425.733" y="504"/>
      <point x="390.835" y="528"/>
      <point x="319.835" y="528" type="curve" smooth="yes"/>
      <point x="186.835" y="528"/>
      <point x="82.4922" y="437"/>
      <point x="46.7832" y="269" type="curve" smooth="yes"/>
      <point x="8.52246" y="89"/>
      <point x="63.9043" y="-8"/>
      <point x="196.904" y="-8" type="curve" smooth="yes"/>
      <point x="267.904" y="-8"/>
      <point x="326.407" y="32"/>
      <point x="366.948" y="91" type="curve"/>
      <point x="364.605" y="0" type="line"/>
      <point x="497.605" y="0" type="line"/>
      <point x="508.658" y="52" type="line"/>
      <point x="436.658" y="52" type="line"/>
      <point x="576.096" y="708" type="line"/>
    </contour>
    <contour>
      <point x="327.782" y="476" type="curve" smooth="yes"/>
      <point x="382.782" y="476"/>
      <point x="414.807" y="462"/>
      <point x="438.918" y="439" type="curve"/>
      <point x="373.45" y="131" type="line"/>
      <point x="340.16" y="92"/>
      <point x="299.658" y="52"/>
      <point x="224.658" y="52" type="curve" smooth="yes"/>
      <point x="123.658" y="52"/>
      <point x="96.3877" y="126"/>
      <point x="126.357" y="267" type="curve" smooth="yes"/>
      <point x="155.266" y="403"/>
      <point x="229.782" y="476"/>
    </contour>
  </outline>
</glyph>
<glyph name="e" format="2">
  <advance width="501"/>
  <unicode hex="0065"/>
  <guideline x="0" y="260" angle="0" name="ItalicCenter" identifier="fontra-guideline-0"/>
  <anchor x="307" y="687" name="AccentCenter"/>
  <outline>
    <contour>
      <point x="289" y="528" type="curve" smooth="yes"/>
      <point x="400" y="528"/>
      <point x="457" y="456"/>
      <point x="457" y="346" type="curve" smooth="yes"/>
      <point x="457" y="333"/>
      <point x="455" y="310"/>
      <point x="452" y="301" type="curve"/>
      <point x="126" y="216" type="line"/>
      <point x="127" y="137"/>
      <point x="176" y="47"/>
      <point x="290" y="47" type="curve" smooth="yes"/>
      <point x="324" y="47"/>
      <point x="351" y="54"/>
      <point x="392" y="70" type="curve"/>
      <point x="380" y="13" type="line"/>
      <point x="326" y="-5"/>
      <point x="305" y="-8"/>
      <point x="259" y="-8" type="curve" smooth="yes"/>
      <point x="110" y="-8"/>
      <point x="44" y="102"/>
      <point x="44" y="230" type="curve" smooth="yes"/>
      <point x="44" y="409"/>
      <point x="151" y="528"/>
    </contour>
    <contour>
      <point x="283" y="478" type="curve" smooth="yes"/>
      <point x="207" y="478"/>
      <point x="126" y="429"/>
      <point x="125" y="264" type="curve"/>
      <point x="384" y="336" type="line"/>
      <point x="384" y="338" type="line" smooth="yes"/>
      <point x="384" y="432"/>
      <point x="350" y="478"/>
    </contour>
  </outline>
</glyph>
<glyph name="f" format="2">
  <advance width="362"/>
  <unicode hex="0066"/>
  <outline>
    <contour>
      <point x="394" y="671" type="line"/>
      <point x="405" y="723" type="line"/>
      <point x="391" y="728"/>
      <point x="368" y="732"/>
      <point x="349" y="732" type="curve" smooth="yes"/>
      <point x="264" y="732"/>
      <point x="190" y="690"/>
      <point x="170" y="593" type="curve" smooth="yes"/>
      <point x="155" y="520" type="line"/>
      <point x="49" y="494" type="line"/>
      <point x="43" y="464" type="line"/>
      <point x="143" y="464" type="line"/>
      <point x="46" y="0" type="line"/>
      <point x="-77" y="-185" type="line"/>
      <point x="3" y="-185" type="line"/>
      <point x="127" y="0" type="line"/>
      <point x="226" y="464" type="line"/>
      <point x="343" y="464" type="line"/>
      <point x="355" y="520" type="line"/>
      <point x="238" y="520" type="line"/>
      <point x="272" y="679" type="line"/>
    </contour>
  </outline>
</glyph>
<glyph name="g" format="2">
  <advance width="562"/>
  <unicode hex="0067"/>
  <outline>
    <contour>
      <point x="313" y="528" type="curve" smooth="yes"/>
      <point x="374" y="528"/>
      <point x="425" y="510"/>
      <point x="452" y="473" type="curve"/>
      <point x="480" y="500" type="line"/>
      <point x="600" y="530" type="line"/>
      <point x="585" y="463" type="line"/>
      <point x="468" y="441" type="line"/>
      <point x="475" y="418"/>
      <point x="476" y="391"/>
      <point x="469" y="359" type="curve" smooth="yes"/>
      <point x="447" y="254"/>
      <point x="363" y="190"/>
      <point x="245" y="190" type="curve" smooth="yes"/>
      <point x="229" y="190"/>
      <point x="215" y="192"/>
      <point x="201" y="195" type="curve"/>
      <point x="161" y="187"/>
      <point x="125" y="171"/>
      <point x="121" y="149" type="curve" smooth="yes"/>
      <point x="116" y="129"/>
      <point x="130" y="120"/>
      <point x="158" y="117" type="curve" smooth="yes"/>
      <point x="342" y="96" type="line" smooth="yes"/>
      <point x="429" y="86"/>
      <point x="489" y="45"/>
      <point x="472" y="-35" type="curve" smooth="yes"/>
      <point x="452" y="-126"/>
      <point x="368" y="-192"/>
      <point x="189" y="-192" type="curve" smooth="yes"/>
      <point x="49" y="-192"/>
      <point x="-36" y="-129"/>
      <point x="-13" y="-21" type="curve"/>
      <point x="124" y="52" type="line"/>
      <point x="90" y="57" type="line" smooth="yes"/>
      <point x="50" y="63"/>
      <point x="26" y="85"/>
      <point x="33" y="115" type="curve" smooth="yes"/>
      <point x="40" y="152"/>
      <point x="62" y="183"/>
      <point x="147" y="207" type="curve"/>
      <point x="89" y="237"/>
      <point x="69" y="283"/>
      <point x="85" y="359" type="curve" smooth="yes"/>
      <point x="109" y="469"/>
      <point x="205" y="528"/>
    </contour>
    <contour>
      <point x="61" y="-27" type="line"/>
      <point x="48" y="-92"/>
      <point x="84" y="-138"/>
      <point x="215" y="-138" type="curve" smooth="yes"/>
      <point x="323" y="-138"/>
      <point x="377" y="-105"/>
      <point x="390" y="-44" type="curve" smooth="yes"/>
      <point x="400" y="4"/>
      <point x="370" y="25"/>
      <point x="320" y="31" type="curve" smooth="yes"/>
      <point x="187" y="47" type="line"/>
    </contour>
    <contour>
      <point x="303" y="478" type="curve" smooth="yes"/>
      <point x="235" y="478"/>
      <point x="183" y="441"/>
      <point x="165" y="359" type="curve" smooth="yes"/>
      <point x="150" y="285"/>
      <point x="179" y="240"/>
      <point x="252" y="240" type="curve" smooth="yes"/>
      <point x="324" y="240"/>
      <point x="374" y="285"/>
      <point x="389" y="359" type="curve" smooth="yes"/>
      <point x="407" y="440"/>
      <point x="371" y="478"/>
    </contour>
  </outline>
</glyph>
<glyph name="h" format="2">
  <advance width="609"/>
  <unicode hex="0068"/>
  <outline>
    <contour>
      <point x="117" y="689" type="line"/>
      <point x="269" y="716" type="line"/>
      <point x="210" y="440" type="line"/>
      <point x="256" y="495"/>
      <point x="327" y="528"/>
      <point x="399" y="528" type="curve" smooth="yes"/>
      <point x="502" y="528"/>
      <point x="540" y="459"/>
      <point x="513" y="329" type="curve" smooth="yes"/>
      <point x="455" y="56" type="line"/>
      <point x="519" y="56" type="line"/>
      <point x="507" y="0" type="line"/>
      <point x="299" y="0" type="line"/>
      <point x="311" y="56" type="line"/>
      <point x="375" y="56" type="line"/>
      <point x="434" y="334" type="line" smooth="yes"/>
      <point x="457" y="445"/>
      <point x="412" y="471"/>
      <point x="355" y="471" type="curve" smooth="yes"/>
      <point x="294" y="471"/>
      <point x="245" y="441"/>
      <point x="199" y="388" type="curve"/>
      <point x="117" y="0" type="line"/>
      <point x="-38" y="0" type="line"/>
      <point x="-26" y="56" type="line"/>
      <point x="49" y="56" type="line"/>
      <point x="175" y="651" type="line"/>
      <point x="107" y="638" type="line"/>
    </contour>
  </outline>
</glyph>
<glyph name="i" format="2">
  <advance width="289"/>
  <unicode hex="0069"/>
  <outline>
    <contour>
      <point x="234.54" y="739" type="curve" smooth="yes"/>
      <point x="265.54" y="739"/>
      <point x="283.438" y="715"/>
      <point x="276.637" y="683" type="curve" smooth="yes"/>
      <point x="270.047" y="652"/>
      <point x="242.158" y="629"/>
      <point x="211.158" y="629" type="curve" smooth="yes"/>
      <point x="179.158" y="629"/>
      <point x="160.047" y="652"/>
      <point x="166.637" y="683" type="curve" smooth="yes"/>
      <point x="173.438" y="715"/>
      <point x="202.54" y="739"/>
    </contour>
    <component base="dotlessi" yxScale="4.383299778976113e-07"/>
  </outline>
</glyph>
<glyph name="j" format="2">
  <advance width="301"/>
  <unicode hex="006A"/>
  <outline>
    <contour>
      <point x="120" y="520" type="line"/>
      <point x="274" y="520" type="line"/>
      <point x="157" y="-34" type="line" smooth="yes"/>
      <point x="152" y="-58"/>
      <point x="116" y="-192"/>
      <point x="-45" y="-192" type="curve" smooth="yes"/>
      <point x="-54" y="-192" type="line"/>
      <point x="-43" y="-139" type="line"/>
      <point x="-34" y="-139" type="line" smooth="yes"/>
      <point x="-5" y="-139"/>
      <point x="59" y="-118"/>
      <point x="77" y="-34" type="curve" smooth="yes"/>
      <point x="182" y="464" type="line"/>
      <point x="108" y="464" type="line"/>
    </contour>
    <contour>
      <point x="282" y="739" type="curve" smooth="yes"/>
      <point x="314" y="739"/>
      <point x="332" y="713"/>
      <point x="326" y="684" type="curve" smooth="yes"/>
      <point x="320" y="655"/>
      <point x="291" y="629"/>
      <point x="259" y="629" type="curve" smooth="yes"/>
      <point x="230" y="629"/>
      <point x="209" y="652"/>
      <point x="216" y="684" type="curve" smooth="yes"/>
      <point x="223" y="716"/>
      <point x="253" y="739"/>
    </contour>
  </outline>
</glyph>
<glyph name="k" format="2">
  <advance width="571"/>
  <unicode hex="006B"/>
  <outline>
    <contour>
      <point x="122" y="708" type="line"/>
      <point x="274" y="708" type="line"/>
      <point x="182" y="273" type="line"/>
      <point x="420" y="464" type="line"/>
      <point x="364" y="464" type="line"/>
      <point x="376" y="520" type="line"/>
      <point x="569" y="520" type="line"/>
      <point x="557" y="464" type="line"/>
      <point x="500" y="464" type="line"/>
      <point x="273" y="285" type="line"/>
      <point x="427" y="56" type="line"/>
      <point x="495" y="56" type="line"/>
      <point x="483" y="0" type="line"/>
      <point x="352" y="0" type="line"/>
      <point x="183" y="265" type="line"/>
      <point x="180" y="265" type="line"/>
      <point x="136" y="56" type="line"/>
      <point x="210" y="56" type="line"/>
      <point x="198" y="0" type="line"/>
      <point x="-28" y="0" type="line"/>
      <point x="-16" y="56" type="line"/>
      <point x="56" y="56" type="line"/>
      <point x="182" y="652" type="line"/>
      <point x="110" y="652" type="line"/>
    </contour>
  </outline>
</glyph>
<glyph name="l" format="2">
  <advance width="304"/>
  <unicode hex="006C"/>
  <outline>
    <contour>
      <point x="115" y="772" type="line"/>
      <point x="284" y="772" type="line"/>
      <point x="132" y="54" type="line"/>
      <point x="220" y="73" type="line"/>
      <point x="209" y="19" type="line"/>
      <point x="98" y="-8" type="line"/>
      <point x="64" y="-8"/>
      <point x="50" y="14"/>
      <point x="50" y="31" type="curve" smooth="yes"/>
      <point x="50" y="48"/>
      <point x="52" y="56"/>
      <point x="55" y="70" type="curve" smooth="yes"/>
      <point x="192" y="716" type="line"/>
      <point x="103" y="716" type="line"/>
    </contour>
  </outline>
</glyph>
<glyph name="m" format="2">
  <advance width="823"/>
  <unicode hex="006D"/>
  <outline>
    <contour>
      <point x="69" y="501" type="line"/>
      <point x="211" y="528" type="line"/>
      <point x="159" y="288" type="line"/>
      <point x="213" y="470"/>
      <point x="292" y="528"/>
      <point x="374" y="528" type="curve" smooth="yes"/>
      <point x="442" y="528"/>
      <point x="477" y="488"/>
      <point x="477" y="411" type="curve" smooth="yes"/>
      <point x="477" y="394"/>
      <point x="475" y="375"/>
      <point x="472" y="355" type="curve"/>
      <point x="524" y="485"/>
      <point x="593" y="528"/>
      <point x="664" y="528" type="curve" smooth="yes"/>
      <point x="732" y="528"/>
      <point x="767" y="488"/>
      <point x="767" y="411" type="curve" smooth="yes"/>
      <point x="767" y="387"/>
      <point x="764" y="360"/>
      <point x="757" y="329" type="curve" smooth="yes"/>
      <point x="700" y="61" type="line"/>
      <point x="767" y="72" type="line"/>
      <point x="754" y="21" type="line"/>
      <point x="607" y="0" type="line"/>
      <point x="680" y="345" type="line" smooth="yes"/>
      <point x="686" y="372"/>
      <point x="688" y="393"/>
      <point x="688" y="410" type="curve" smooth="yes"/>
      <point x="688" y="463"/>
      <point x="664" y="472"/>
      <point x="644" y="472" type="curve" smooth="yes"/>
      <point x="552" y="472"/>
      <point x="489" y="329"/>
      <point x="442" y="211" type="curve"/>
      <point x="410" y="61" type="line"/>
      <point x="477" y="72" type="line"/>
      <point x="464" y="21" type="line"/>
      <point x="317" y="0" type="line"/>
      <point x="390" y="345" type="line" smooth="yes"/>
      <point x="396" y="372"/>
      <point x="398" y="393"/>
      <point x="398" y="410" type="curve" smooth="yes"/>
      <point x="398" y="463"/>
      <point x="374" y="472"/>
      <point x="354" y="472" type="curve" smooth="yes"/>
      <point x="261" y="472"/>
      <point x="197" y="325"/>
      <point x="150" y="206" type="curve"/>
      <point x="107" y="0" type="line"/>
      <point x="27" y="0" type="line"/>
      <point x="127" y="466" type="line"/>
      <point x="60" y="457" type="line"/>
    </contour>
  </outline>
</glyph>
<glyph name="n" format="2">
  <advance width="550"/>
  <unicode hex="006E"/>
  <anchor x="376.312" y="687" name="AccentCenter"/>
  <outline>
    <contour>
      <point x="86.376" y="501" type="line"/>
      <point x="228.115" y="528" type="line"/>
      <point x="176" y="288" type="line"/>
      <point x="230" y="470"/>
      <point x="309" y="528"/>
      <point x="391" y="528" type="curve" smooth="yes"/>
      <point x="459" y="528"/>
      <point x="494" y="488"/>
      <point x="494" y="411" type="curve" smooth="yes"/>
      <point x="494" y="387"/>
      <point x="491" y="360"/>
      <point x="484" y="329" type="curve" smooth="yes"/>
      <point x="427" y="61" type="line"/>
      <point x="494" y="72" type="line"/>
      <point x="481" y="21" type="line"/>
      <point x="334" y="0" type="line"/>
      <point x="407" y="345" type="line" smooth="yes"/>
      <point x="413" y="372"/>
      <point x="415" y="393"/>
      <point x="415" y="410" type="curve" smooth="yes"/>
      <point x="415" y="463"/>
      <point x="391" y="472"/>
      <point x="371" y="472" type="curve" smooth="yes"/>
      <point x="278" y="472"/>
      <point x="214" y="325"/>
      <point x="167" y="206" type="curve"/>
      <point x="124" y="0" type="line"/>
      <point x="44" y="0" type="line"/>
      <point x="144" y="466" type="line"/>
      <point x="77.0234" y="457" type="line"/>
    </contour>
  </outline>
</glyph>
<glyph name="o" format="2">
  <advance width="523"/>
  <unicode hex="006F"/>
  <anchor x="362" y="687" name="AccentCenter"/>
  <outline>
    <contour>
      <point x="307" y="472" type="curve" smooth="yes"/>
      <point x="207" y="472"/>
      <point x="119" y="364"/>
      <point x="119" y="179" type="curve" smooth="yes"/>
      <point x="119" y="120"/>
      <point x="126" y="48"/>
      <point x="215" y="48" type="curve" smooth="yes"/>
      <point x="316" y="48"/>
      <point x="404" y="168"/>
      <point x="404" y="339" type="curve" smooth="yes"/>
      <point x="404" y="402"/>
      <point x="384" y="472"/>
    </contour>
    <contour>
      <point x="319" y="528" type="curve" smooth="yes"/>
      <point x="438" y="528"/>
      <point x="483" y="429"/>
      <point x="483" y="352" type="curve" smooth="yes"/>
      <point x="483" y="115"/>
      <point x="344" y="-8"/>
      <point x="203" y="-8" type="curve" smooth="yes"/>
      <point x="81" y="-8"/>
      <point x="40" y="97"/>
      <point x="40" y="173" type="curve" smooth="yes"/>
      <point x="40" y="411"/>
      <point x="174" y="528"/>
    </contour>
  </outline>
</glyph>
<glyph name="p" format="2">
  <advance width="541"/>
  <unicode hex="0070"/>
  <guideline x="0" y="260" angle="0" name="ItalicCenter" identifier="fontra-guideline-0"/>
  <outline>
    <contour>
      <point x="90.8203" y="520" type="line"/>
      <point x="215.82" y="520" type="line"/>
      <point x="214.54" y="434" type="line"/>
      <point x="237" y="481"/>
      <point x="280" y="528"/>
      <point x="357" y="528" type="curve" smooth="yes"/>
      <point x="454" y="528"/>
      <point x="501" y="464"/>
      <point x="501" y="366" type="curve" smooth="yes"/>
      <point x="501" y="132"/>
      <point x="375" y="-8"/>
      <point x="239" y="-8" type="curve" smooth="yes"/>
      <point x="176" y="-8"/>
      <point x="153" y="12"/>
      <point x="133.218" y="42" type="curve"/>
      <point x="95.3828" y="-136" type="line"/>
      <point x="159.383" y="-136" type="line"/>
      <point x="147.479" y="-192" type="line"/>
      <point x="3.47949" y="-192" type="line"/>
      <point x="142.917" y="464" type="line"/>
      <point x="78.917" y="464" type="line"/>
    </contour>
    <contour>
      <point x="205.487" y="382" type="curve"/>
      <point x="145" y="91" type="line"/>
      <point x="164" y="67"/>
      <point x="187" y="48"/>
      <point x="238" y="48" type="curve" smooth="yes"/>
      <point x="342" y="48"/>
      <point x="421" y="170"/>
      <point x="421" y="359" type="curve" smooth="yes"/>
      <point x="421" y="424"/>
      <point x="400" y="472"/>
      <point x="332" y="472" type="curve" smooth="yes"/>
      <point x="260" y="472"/>
      <point x="219" y="406"/>
    </contour>
  </outline>
</glyph>
<glyph name="q" format="2">
  <advance width="540"/>
  <unicode hex="0071"/>
  <guideline x="0" y="260" angle="0" name="ItalicCenter" identifier="fontra-guideline-0"/>
  <outline>
    <contour>
      <point x="317" y="528" type="curve" smooth="yes"/>
      <point x="361" y="528"/>
      <point x="409" y="509"/>
      <point x="434" y="470" type="curve"/>
      <point x="465" y="492"/>
      <point x="519" y="513"/>
      <point x="561" y="520" type="curve"/>
      <point x="548" y="462" type="line"/>
      <point x="481" y="445" type="line"/>
      <point x="357" y="-136" type="line"/>
      <point x="421" y="-136" type="line"/>
      <point x="409" y="-192" type="line"/>
      <point x="265" y="-192" type="line"/>
      <point x="316" y="47" type="line"/>
      <point x="288" y="21"/>
      <point x="248" y="-8"/>
      <point x="180" y="-8" type="curve" smooth="yes"/>
      <point x="73" y="-8"/>
      <point x="45" y="83"/>
      <point x="45" y="168" type="curve" smooth="yes"/>
      <point x="45" y="420"/>
      <point x="191" y="528"/>
    </contour>
    <contour>
      <point x="317" y="472" type="curve" smooth="yes"/>
      <point x="213" y="472"/>
      <point x="125" y="381"/>
      <point x="125" y="163" type="curve" smooth="yes"/>
      <point x="125" y="94"/>
      <point x="150" y="48"/>
      <point x="216" y="48" type="curve" smooth="yes"/>
      <point x="261" y="48"/>
      <point x="302" y="76"/>
      <point x="328" y="101" type="curve"/>
      <point x="397" y="430" type="line"/>
      <point x="382" y="456"/>
      <point x="352" y="472"/>
    </contour>
  </outline>
</glyph>
<glyph name="r" format="2">
  <advance width="366"/>
  <unicode hex="0072"/>
  <outline>
    <contour>
      <point x="196.222" y="529" type="line"/>
      <point x="185" y="387" type="line"/>
      <point x="218" y="437"/>
      <point x="299" y="529"/>
      <point x="377" y="529" type="curve" smooth="yes"/>
      <point x="387" y="529"/>
      <point x="390" y="529"/>
      <point x="401" y="528" type="curve"/>
      <point x="383" y="462" type="line"/>
      <point x="373" y="462" type="line"/>
      <point x="297" y="462"/>
      <point x="215" y="381"/>
      <point x="173" y="333" type="curve"/>
      <point x="103.0" y="0" type="line"/>
      <point x="23.0" y="0" type="line"/>
      <point x="122.043" y="467" type="line"/>
      <point x="33.279300000000006" y="454" type="line"/>
      <point x="45.182599999999994" y="510" type="line"/>
    </contour>
  </outline>
</glyph>
<glyph name="s" format="2">
  <advance width="456.21191"/>
  <unicode hex="0073"/>
  <image fileName="8a4b6d64-365f-4039-8e3d-0f348c1cd5c6.png" xScale="1.5574777981803578" yScale="1.5574777981803576" xOffset="-1391.0" yOffset="-2373.0" color="0,0,0,0.26143"/>
  <outline>
    <contour>
      <point x="275" y="528" type="curve" smooth="yes"/>
      <point x="340" y="528"/>
      <point x="378" y="517"/>
      <point x="430" y="487" type="curve"/>
      <point x="393" y="377" type="line"/>
      <point x="320" y="386" type="line"/>
      <point x="344" y="459" type="line"/>
      <point x="325" y="469"/>
      <point x="303" y="472"/>
      <point x="277" y="472" type="curve" smooth="yes"/>
      <point x="205" y="472"/>
      <point x="163" y="442"/>
      <point x="150" y="378" type="curve"/>
      <point x="323" y="240" type="line" smooth="yes"/>
      <point x="370" y="203"/>
      <point x="400" y="182"/>
      <point x="400" y="133" type="curve" smooth="yes"/>
      <point x="400" y="58"/>
      <point x="322" y="-8"/>
      <point x="203" y="-8" type="curve" smooth="yes"/>
      <point x="114" y="-8"/>
      <point x="71" y="14"/>
      <point x="19" y="52" type="curve"/>
      <point x="40" y="150" type="line"/>
      <point x="110" y="150" type="line"/>
      <point x="96" y="80" type="line"/>
      <point x="124" y="62"/>
      <point x="154" y="48"/>
      <point x="198" y="48" type="curve" smooth="yes"/>
      <point x="265" y="48"/>
      <point x="303" y="70"/>
      <point x="325" y="130" type="curve"/>
      <point x="169" y="257" type="line" smooth="yes"/>
      <point x="104" y="310"/>
      <point x="80" y="324"/>
      <point x="80" y="379" type="curve" smooth="yes"/>
      <point x="80" y="465"/>
      <point x="172" y="528"/>
    </contour>
  </outline>
</glyph>
<glyph name="t" format="2">
  <advance width="363"/>
  <unicode hex="0074"/>
  <outline>
    <contour>
      <point x="172.786" y="649" type="line"/>
      <point x="258.863" y="687" type="line"/>
      <point x="223.366" y="520" type="line"/>
      <point x="353.366" y="520" type="line"/>
      <point x="339.55" y="455" type="line"/>
      <point x="209.55" y="455" type="line"/>
      <point x="142.808" y="141" type="line" smooth="yes"/>
      <point x="131.329" y="87"/>
      <point x="149" y="47"/>
      <point x="213" y="47" type="curve"/>
      <point x="222" y="47"/>
      <point x="238" y="50"/>
      <point x="250.315" y="54" type="curve" smooth="yes"/>
      <point x="272" y="60" type="line"/>
      <point x="271" y="3" type="line"/>
      <point x="244" y="-4"/>
      <point x="210.137" y="-8"/>
      <point x="189.137" y="-8" type="curve" smooth="yes"/>
      <point x="75.1367" y="-8"/>
      <point x="42.7012" y="37"/>
      <point x="65.2324" y="143" type="curve" smooth="yes"/>
      <point x="131.55" y="455" type="line"/>
      <point x="32.5498" y="455" type="line"/>
      <point x="42.3281" y="501" type="line"/>
      <point x="145.366" y="520" type="line"/>
    </contour>
  </outline>
</glyph>
<glyph name="u" format="2">
  <advance width="544.6399645104364"/>
  <unicode hex="0075"/>
  <guideline x="0" y="260" angle="0" name="ItalicCenter" identifier="fontra-guideline-0"/>
  <anchor x="360" y="687" name="AccentCenter"/>
  <outline>
    <contour>
      <point x="74.63996451043633" y="520" type="line"/>
      <point x="218.63996451043633" y="520" type="line"/>
      <point x="145.63996451043633" y="175" type="line" smooth="yes"/>
      <point x="123.63996451043633" y="74"/>
      <point x="144.63996451043633" y="52"/>
      <point x="180.63996451043633" y="52" type="curve" smooth="yes"/>
      <point x="249.63996451043633" y="52"/>
      <point x="337.63996451043636" y="189"/>
      <point x="380.63996451043636" y="273" type="curve"/>
      <point x="432.63996451043636" y="520" type="line"/>
      <point x="512.6399645104364" y="520" type="line"/>
      <point x="414.63996451043636" y="56" type="line"/>
      <point x="478.63996451043636" y="56" type="line"/>
      <point x="470.63996451043636" y="19" type="line"/>
      <point x="330.63996451043636" y="-9" type="line"/>
      <point x="368.63996451043636" y="209" type="line"/>
      <point x="314.63996451043636" y="60"/>
      <point x="236.63996451043633" y="-8"/>
      <point x="158.63996451043633" y="-8" type="curve" smooth="yes"/>
      <point x="79.63996451043633" y="-8"/>
      <point x="41.63996451043633" y="61"/>
      <point x="68.63996451043633" y="191" type="curve" smooth="yes"/>
      <point x="127.63996451043633" y="468" type="line"/>
      <point x="63" y="468" type="line"/>
    </contour>
  </outline>
</glyph>
<glyph name="v" format="2">
  <advance width="540"/>
  <unicode hex="0076"/>
  <guideline x="0" y="260" angle="0" name="ItalicCenter" identifier="fontra-guideline-0"/>
  <outline>
    <contour>
      <point x="44" y="520" type="line"/>
      <point x="252" y="520" type="line"/>
      <point x="240" y="464" type="line"/>
      <point x="177" y="464" type="line"/>
      <point x="216" y="52" type="line"/>
      <point x="451" y="464" type="line"/>
      <point x="390" y="464" type="line"/>
      <point x="402" y="520" type="line"/>
      <point x="570" y="520" type="line"/>
      <point x="558" y="464" type="line"/>
      <point x="508" y="464" type="line"/>
      <point x="251" y="0" type="line"/>
      <point x="135" y="0" type="line"/>
      <point x="93" y="464" type="line"/>
      <point x="32" y="464" type="line"/>
    </contour>
  </outline>
</glyph>
<glyph name="w" format="2">
  <advance width="844"/>
  <unicode hex="0077"/>
  <image fileName="bb02233d-d2b8-4fef-a291-c5c52db50e37.png" xScale="1.5574777981803578" yScale="1.5574777981803576" xOffset="-2731.0" yOffset="-2356.0" color="0,0,0,0.26143"/>
  <outline>
    <contour>
      <point x="61" y="520" type="line"/>
      <point x="130" y="520" type="line"/>
      <point x="166" y="520"/>
      <point x="194" y="499"/>
      <point x="196" y="462" type="curve" smooth="yes"/>
      <point x="212" y="93" type="line"/>
      <point x="431" y="520" type="line"/>
      <point x="527" y="520" type="line"/>
      <point x="529" y="80" type="line"/>
      <point x="746" y="464" type="line"/>
      <point x="693" y="464" type="line"/>
      <point x="705" y="520" type="line"/>
      <point x="873" y="520" type="line"/>
      <point x="861" y="464" type="line"/>
      <point x="809" y="464" type="line"/>
      <point x="552" y="0" type="line"/>
      <point x="451" y="26" type="line"/>
      <point x="459" y="442" type="line"/>
      <point x="237" y="0" type="line"/>
      <point x="127" y="27" type="line"/>
      <point x="110" y="464" type="line"/>
      <point x="49" y="464" type="line"/>
    </contour>
  </outline>
</glyph>
<glyph name="x" format="2">
  <advance width="567"/>
  <unicode hex="0078"/>
  <image fileName="7b885355-de91-4283-8f54-b9751122f22c.png" xScale="1.5497539112656824" yScale="1.5497539112656824" xOffset="-3653.0" yOffset="-2349.0" color="0,0,0,0.25796"/>
  <outline>
    <contour>
      <point x="242" y="234" type="line"/>
      <point x="75" y="-8" type="line"/>
      <point x="-1" y="31" type="line"/>
      <point x="215" y="296" type="line"/>
      <point x="145" y="464" type="line"/>
      <point x="77" y="464" type="line"/>
      <point x="76" y="520" type="line"/>
      <point x="151" y="520" type="line"/>
      <point x="190" y="520"/>
      <point x="216" y="505"/>
      <point x="233" y="464" type="curve" smooth="yes"/>
      <point x="300" y="302" type="line"/>
      <point x="462" y="528" type="line"/>
      <point x="543" y="490" type="line"/>
      <point x="325" y="246" type="line"/>
      <point x="403" y="56" type="line"/>
      <point x="515" y="56" type="line"/>
      <point x="506" y="0" type="line"/>
      <point x="397" y="0" type="line"/>
      <point x="358" y="0"/>
      <point x="332" y="15"/>
      <point x="315" y="56" type="curve" smooth="yes"/>
    </contour>
  </outline>
</glyph>
<glyph name="y" format="2">
  <advance width="522"/>
  <unicode hex="0079"/>
  <guideline x="0" y="260" angle="0" name="ItalicCenter" identifier="fontra-guideline-0"/>
  <anchor x="404.261" y="687" name="AccentCenter"/>
  <outline>
    <contour>
      <point x="-8" y="-88" type="line"/>
      <point x="-26" y="-183" type="line"/>
      <point x="-12" y="-188"/>
      <point x="6" y="-191"/>
      <point x="38" y="-191" type="curve"/>
      <point x="329" y="-191"/>
      <point x="517" y="267"/>
      <point x="542" y="520" type="curve"/>
      <point x="466" y="520" type="line"/>
      <point x="434" y="297"/>
      <point x="355" y="137"/>
      <point x="281" y="30" type="curve"/>
      <point x="219" y="520" type="line"/>
      <point x="86" y="520" type="line"/>
      <point x="74" y="464" type="line"/>
      <point x="139" y="464" type="line"/>
      <point x="205" y="-51" type="line"/>
      <point x="155" y="-107"/>
      <point x="93" y="-135"/>
      <point x="39" y="-135" type="curve"/>
      <point x="49" y="-88" type="line"/>
    </contour>
  </outline>
</glyph>
<glyph name="z" format="2">
  <advance width="478"/>
  <unicode hex="007A"/>
  <outline>
    <contour>
      <point x="101.265" y="520" type="line"/>
      <point x="495.265" y="520" type="line"/>
      <point x="483.361" y="464" type="line"/>
      <point x="95.6387" y="56" type="line"/>
      <point x="402.639" y="56" type="line"/>
      <point x="390.735" y="0" type="line"/>
      <point x="-11.2646" y="0" type="line"/>
      <point x="0.638672" y="56" type="line"/>
      <point x="392.361" y="464" type="line"/>
      <point x="89.1494" y="463" type="line"/>
    </contour>
  </outline>
</glyph>
<glyph name="dotlessi" format="2">
  <advance width="289"/>
  <unicode hex="0131"/>
  <image fileName="dd6c3e5e-f500-4a5c-b5c9-c49213c106e1.png" xScale="1.5925446327684514" yScale="1.5925446327684514" xOffset="-2471.0" yOffset="-2411.0" color="0,0,0,0.2157"/>
  <anchor x="138" y="687" name="AccentCenter"/>
  <outline>
    <contour>
      <point x="68" y="520" type="line"/>
      <point x="237" y="520" type="line"/>
      <point x="139" y="54" type="line"/>
      <point x="227" y="73" type="line"/>
      <point x="216" y="19" type="line"/>
      <point x="105" y="-8" type="line"/>
      <point x="71" y="-8"/>
      <point x="57" y="14"/>
      <point x="57" y="31" type="curve" smooth="yes"/>
      <point x="57" y="48"/>
      <point x="59" y="56"/>
      <point x="62" y="70" type="curve" smooth="yes"/>
      <point x="145" y="464" type="line"/>
      <point x="56" y="464" type="line"/>
    </contour>
  </outline>
</glyph>
<glyph name="acutecomb" format="2">
  <advance width="0"/>
  <unicode hex="0301"/>
  <anchor x="31" y="830" name="_AccentCenter"/>
  <outline>
    <contour>
      <point x="81" y="931" type="line"/>
      <point x="128" y="867" type="line"/>
      <point x="-91" y="744" type="line"/>
      <point x="-126" y="796" type="line"/>
    </contour>
  </outline>
</glyph>
